<svg fill="#fff" xmlns="http://www.w3.org/2000/svg" viewBox="0 0 50 50">
    <path d="M49.729 11h-.85c-1.051 0-2.041.49-2.68 1.324l-8.7 11.377-8.7-11.377A3.371 3.371 0 0 0 26.121 11h-.85l10.971 14.346L25.036 40h.85c1.051 0 2.041-.49 2.679-1.324L37.5 26.992l8.935 11.684A3.373 3.373 0 0 0 49.114 40h.85L38.758 25.346 49.729 11zm-28.44 23.242c-2.554 3.881-7.582 5.87-12.389 4.116C4.671 36.815 2 32.611 2 28.109V27h23v-4.134c0-6.505-4.818-12.2-11.295-12.809C6.273 9.358 0 15.21 0 22.5v5.573c0 5.371 3.215 10.364 8.269 12.183 6.603 2.376 13.548-1.17 15.896-7.256h-.638c-.911 0-1.738.481-2.238 1.242zM2 22.5C2 16.71 6.71 12 12.5 12S23 16.71 23 22.5V25H2v-2.5z"/>
</svg>
