<svg xmlns="http://www.w3.org/2000/svg" viewBox="0 0 500 500" style="enable-background:new 0 0 500 500" xml:space="preserve">
  <path fill="#000" d="M488.15 287.72c2.34 1.64-1.74 8.42-12.23 20.37-1.96 1.02-4.82 3.62-8.58 7.79l-9.13 3.8-30.69 15.94c-23.82 7.22-48.45 13.29-73.87 18.19-28.44 2.39-99.99 10.52-154.13 18.81-.94-.65-24.57 1.06-70.92 5.13-.56-.55-2.59-.58-6.11-.08l-2.1-1.48c-.89-.53.34-1.73 3.67-3.55-7.26.43-12.03-.12-14.33-1.64l-1.4-.98c-.48-4.68 1.64-8.26 6.39-10.78 2.72-.82 4.63-1.5 5.76-2.08-1.38-2.65-1.22-4.38.5-5.18 1.13.32 7.64-1.16 19.52-4.44l2.75-2.04c60.87-6.6 155.52-18.67 223.42-30.61 49.08-9.11 87.54-18.21 115.37-27.27 3.23-.36 5.26-.33 6.11.1zm-94.74-106.48-.72.17-.11 1.68c-.56.45-.31.15-.65.83-1.3-.28.05-.51-2.59.14l.69.36.42.19-3.7 5.18.36 1.43c-2.08 1.66-2.49-.27-2.77.18l-.42.93c-.48.12-.5.25-1.34.97-.46-.74-.96-.39-1.8-.19.3 1.25-2.36.28-4.49-.6l-1.84-2.03-.24-1.67.07-.69-.93.73-2.63.42c.99-2.04.26-2.34.99-3.81l-1.07-1.26-.17-.71c-2.22-5.37-1.78-1.57-4.29-6.67-8.83 2.2-22.64 17.76-41.44 46.64-2.75 4.29-4.75 7.38-6.33 9.83 0 .01 0 .03-.01.03-16.15 31.11-22.12 28.02-25.99 41.01-1.07.26-7.32 5.61-7.2 7.62-4.23 11.39-15.1 19.77-15.1 20.21l-1.8-.32-.71.17c.54 2.16-2.09 4.9-7.84 8.23-.36 2.12-1.86 3.51-4.48 4.16l-5.19-2.51c-.84.71-1.49 1.13-1.97 1.25-.96-1.8-2.1-3.35-3.44-4.65l-.54-2.16c-.84-3.33-.78-5.13.17-5.36l-1.07-1.26-.17-.71c-.26-1.07-.26-2.09 0-3.04-.71-.84-1.15-1.55-1.29-2.15.19-6.39 1.9-16.02 5.17-28.86 2.65-3.58 3.65-6.7 3-9.31 4.06-6.6 5.96-10.42 5.7-11.51l-2.33.58-.17-.71c4.86-6.84 9.38-15.55 12.42-23.64 1.16-3.01 2.09-5.96 2.77-8.67 1.59-5.83.45-3.64.71-5.75v-.04c.61-2.41 1.28-5.09 2-8.04 3.3-23.9 4.32-13.62 3.86-15.54-1.86-7.41-1.43-12.13 1.22-14.19l.71-.17c1.09-.26 2.1-.26 3.04.01.72-.7 1.62-1.17 2.7-1.43 2.15-.54 5.68 2.19 10.6 8.19l1.78 7.16c1.54 6.22-2.08 14.67-9.6 56.73l.72-.19 17.65-31.4c.59-.14 4.04-5.88 10.35-17.22a218.06 218.06 0 0 0 22.54-30.15c8.33-8.8 14.29-13.63 17.87-14.52l.72-.17c7.87-1.97 16.36-.26 19.5 4.74 6.42 7.42 6.96 5.86 8.53 12.19l.19.72c.12.46-.07.77-.54.88l1.06 1.25c.94 4.6 11.49 14.17 9.46 16.49zm-198.75 5.81.18.71 1.25-1.07c.98-.12 1.58.24 1.79 1.08-.48.12-.66.42-.54.89 2.75-.69 8.24 2.01 16.47 8.07 8.15-3.93 12.15-6.2 12-6.79l-5.02 1.25-.35-1.43 4.29-1.07c3.1-.77 7.93.3 14.5 3.24 7.34 2.99 12.22 9.38 14.66 19.17-.79 15.16-3.48 25.71-8.09 31.68-1.56 5.46-8.01 16.2-19.36 32.21-21.39 31.7-38.83 49.23-52.32 52.59l-2.15.53c-5.49 1.37-16.52-8.31-33.09-29.03-.53-2.15-2.02-6.09-4.46-11.82-.73-21.75 2.33-36.96 9.17-45.64l.53 2.15 17.92-25.76-1.43.35-.36-1.43c13.57-15.3 25.04-25.26 34.41-29.88zm-31.6 108.28.18.72 2.15-.54c11.94-2.97 30.15-23.48 54.66-61.53 3.32-6.53 6.9-13.51 10.76-20.93l-.89-3.58c-6.33 1.58-14.45 5.63-24.36 12.15-9.02 8.08-17.57 17.56-25.63 28.44-10.36 14.88-15.15 25.2-14.35 30.96-1.08.26-1.92 5.03-2.52 14.31zm-12.47-65.35.72-.18c.18.71-.54 1.91-2.15 3.58l-.72.18c-.19-.72.53-1.91 2.15-3.58zm-58.78-26.61c8.83-2.2 19.75.41 32.75 7.82 3.1 3.29 4.95 6.12 5.54 8.51 1.64 6.56 1.57 11.65-.19 15.26l.35 1.43-2.5.63c-5.76-.21-10.71-1.26-14.86-3.15-.36.09-1.62.66-3.76 1.7-4.18.02-7.46.34-9.85.93l-1.79.45c-.48.12-.78-.06-.9-.54-11.85 5.36-19.01 9.68-21.49 12.96l.36 1.43c28.37 4.47 43.46 10.35 45.28 17.63.72-.18 2.8 3.61 6.26 11.37 1.48 5.97.29 13.88-3.6 23.72-3.47 7.97-21.02 21.72-52.67 41.26-.95.24-14.51 8.68-40.66 25.34-4.77.17-7.64.38-8.6.62-.72.69-1.49 1.13-2.33 1.35-.59-2.39-1.37-3.47-2.32-3.23-.36.09-.48.37-.36.85-5.01 1.25-7.93.2-8.77-3.14-.71-.84-1.13-1.49-1.25-1.97.48-.12.66-.42.54-.89l-1.25.31-.36-1.43.72-2.46-.36-1.44-1.97.49c-1.01-4.06 7.41-11.48 25.26-22.26 4.9-5.78 8.6-8.99 11.11-9.61l.18.72c2.39-.6 4.96-2.76 7.7-6.49.24-.06 1.02-.51 2.33-1.34.12.48.42.66.89.54-.11-.99.18-1.57.9-1.75l3.76-.94c-.42-1.67 3.1-3.82 10.57-6.43 1.25-2.59 10.15-9.12 26.69-19.58-.24-.95 1.19-2.32 4.3-4.11l-.18-.71c-1.43.36-7.52-.66-18.26-3.06-14.92-2.37-23.15-6.66-24.69-12.87-1.08.27-4.53-8.25-10.36-25.56l.72-.18c-.12-.48-.42-.66-.9-.54-1.93-7.76 3.15-15.11 15.24-22.05 6.57-4.68 10.09-7.58 10.57-8.72.95.27 1.91.29 2.86.05-.73-3 5.71-6.63 19.35-10.92z"/>
	<path fill="#000" d="M442.64 122.99c8.83-2.2 19.75.41 32.75 7.82 3.1 3.29 4.95 6.12 5.54 8.51 1.64 6.56 1.57 11.65-.19 15.26l.35 1.43-2.5.63c-5.76-.21-10.71-1.26-14.86-3.15-.36.09-1.62.66-3.76 1.7-4.18.02-7.46.34-9.85.93l-1.79.45c-.48.12-.78-.06-.9-.54-11.85 5.36-19.01 9.68-21.49 12.96l.36 1.43c28.37 4.47 43.46 10.35 45.28 17.63.72-.18 2.8 3.61 6.26 11.37 1.48 5.97.29 13.88-3.6 23.72-3.47 7.97-21.02 21.72-52.67 41.26-.95.24-14.51 8.68-40.66 25.34-4.77.17-7.64.38-8.6.62-.72.69-1.49 1.13-2.33 1.35-.59-2.39-1.37-3.47-2.32-3.23-.36.09-.48.37-.36.85-5.01 1.25-7.93.2-8.77-3.14-.71-.84-1.13-1.49-1.25-1.97.48-.12.66-.42.54-.89l-1.25.31-.36-1.43.72-2.46-.36-1.44-1.97.49c-1.01-4.06 7.41-11.48 25.26-22.26 4.9-5.78 8.6-8.99 11.11-9.61l.18.72c2.39-.6 4.96-2.76 7.7-6.49.24-.06 1.02-.51 2.33-1.34.12.48.42.66.89.54-.11-.99.18-1.57.9-1.75l3.76-.94c-.42-1.67 3.1-3.82 10.57-6.43 1.25-2.59 10.15-9.12 26.69-19.58-.24-.95 1.19-2.32 4.3-4.11l-.18-.71c-1.43.36-7.52-.66-18.26-3.06-14.92-2.37-23.15-6.66-24.69-12.87-1.08.27-4.53-8.25-10.36-25.56l.72-.18c-.12-.48-.42-.66-.9-.54-1.93-7.76 3.15-15.11 15.24-22.05 6.57-4.68 10.09-7.58 10.57-8.72.95.27 1.91.29 2.86.05-.73-3 5.71-6.63 19.35-10.92zM496.3 254.2c0 6.23-5.05 11.28-11.29 11.28-6.23 0-11.29-5.05-11.29-11.28 0-6.24 5.05-11.29 11.29-11.29 6.24.01 11.29 5.06 11.29 11.29z"/>
</svg>
