<?xml version="1.0" encoding="utf-8"?>
<!-- Generator: Adobe Illustrator 23.0.6, SVG Export Plug-In . SVG Version: 6.00 Build 0)  -->
<svg version="1.1" id="Layer_1" xmlns="http://www.w3.org/2000/svg" xmlns:xlink="http://www.w3.org/1999/xlink" x="0px" y="0px"
	 viewBox="0 0 500 500" style="enable-background:new 0 0 500 500;" xml:space="preserve">
<style type="text/css">
	.st0{display:none;}
</style>
<path fill="#ffffff" class="st0" d="M138,135.01c8.05-2.01,18.01,0.37,29.86,7.13c2.83,3,4.51,5.58,5.05,7.76c1.49,5.99,1.44,10.63-0.17,13.91
	l0.32,1.31l-2.28,0.57c-5.25-0.19-9.77-1.15-13.55-2.87c-0.33,0.08-1.47,0.6-3.43,1.55c-3.81,0.02-6.8,0.31-8.98,0.85l-1.63,0.41
	c-0.44,0.11-0.71-0.06-0.82-0.49c-10.8,4.89-17.34,8.82-19.6,11.82l0.33,1.3c25.87,4.08,39.63,9.43,41.28,16.07
	c0.65-0.16,2.56,3.29,5.7,10.37c1.35,5.44,0.26,12.65-3.28,21.63c-3.16,7.26-19.17,19.8-48.02,37.62
	c-0.87,0.22-13.23,7.91-37.07,23.1c-4.35,0.15-6.96,0.35-7.84,0.56c-0.65,0.63-1.36,1.03-2.12,1.23c-0.54-2.18-1.25-3.16-2.12-2.94
	c-0.33,0.08-0.44,0.34-0.33,0.77c-4.57,1.14-7.23,0.18-7.99-2.86c-0.65-0.76-1.03-1.36-1.14-1.79c0.44-0.11,0.6-0.39,0.49-0.82
	l-1.14,0.28l-0.32-1.31l0.65-2.24l-0.33-1.31l-1.8,0.45c-0.92-3.7,6.76-10.47,23.03-20.3c4.47-5.27,7.84-8.2,10.13-8.76l0.16,0.65
	c2.18-0.54,4.52-2.51,7.02-5.91c0.22-0.06,0.93-0.46,2.12-1.22c0.11,0.44,0.38,0.6,0.81,0.49c-0.1-0.9,0.16-1.43,0.82-1.59
	l3.43-0.85c-0.38-1.52,2.83-3.48,9.63-5.87c1.14-2.37,9.26-8.31,24.34-17.85c-0.22-0.87,1.09-2.12,3.92-3.75l-0.17-0.65
	c-1.3,0.33-6.85-0.61-16.65-2.79c-13.6-2.16-21.1-6.07-22.51-11.73c-0.98,0.25-4.13-7.53-9.45-23.31l0.65-0.16
	c-0.11-0.44-0.38-0.6-0.82-0.49c-1.76-7.07,2.87-13.77,13.89-20.1c5.99-4.27,9.2-6.91,9.64-7.95c0.87,0.25,1.74,0.26,2.61,0.04
	C119.69,142.23,125.56,138.92,138,135.01z"/>
<g>
	<g>
		<path fill="#ffffff" d="M488.15,287.72c2.34,1.64-1.74,8.42-12.23,20.37c-1.96,1.02-4.82,3.62-8.58,7.79l-9.13,3.8l-30.69,15.94
			c-23.82,7.22-48.45,13.29-73.87,18.19c-28.44,2.39-99.99,10.52-154.13,18.81c-0.94-0.65-24.57,1.06-70.92,5.13
			c-0.56-0.55-2.59-0.58-6.11-0.08l-2.1-1.48c-0.89-0.53,0.34-1.73,3.67-3.55c-7.26,0.43-12.03-0.12-14.33-1.64l-1.4-0.98
			c-0.48-4.68,1.64-8.26,6.39-10.78c2.72-0.82,4.63-1.5,5.76-2.08c-1.38-2.65-1.22-4.38,0.5-5.18c1.13,0.32,7.64-1.16,19.52-4.44
			l2.75-2.04c60.87-6.6,155.52-18.67,223.42-30.61c49.08-9.11,87.54-18.21,115.37-27.27C485.27,287.26,487.3,287.29,488.15,287.72z"
			/>
	</g>
	<path fill="#ffffff" d="M393.41,181.24l-0.72,0.17l-0.11,1.68c-0.56,0.45-0.31,0.15-0.65,0.83c-1.3-0.28,0.05-0.51-2.59,0.14l0.69,0.36l0.42,0.19
		l-3.7,5.18l0.36,1.43c-2.08,1.66-2.49-0.27-2.77,0.18l-0.42,0.93c-0.48,0.12-0.5,0.25-1.34,0.97c-0.46-0.74-0.96-0.39-1.8-0.19
		c0.3,1.25-2.36,0.28-4.49-0.6l-1.84-2.03l-0.24-1.67l0.07-0.69l-0.93,0.73l-2.63,0.42c0.99-2.04,0.26-2.34,0.99-3.81l-1.07-1.26
		l-0.17-0.71c-2.22-5.37-1.78-1.57-4.29-6.67c-8.83,2.2-22.64,17.76-41.44,46.64c-2.75,4.29-4.75,7.38-6.33,9.83
		c0,0.01,0,0.03-0.01,0.03c-16.15,31.11-22.12,28.02-25.99,41.01c-1.07,0.26-7.32,5.61-7.2,7.62c-4.23,11.39-15.1,19.77-15.1,20.21
		l-1.8-0.32l-0.71,0.17c0.54,2.16-2.09,4.9-7.84,8.23c-0.36,2.12-1.86,3.51-4.48,4.16l-5.19-2.51c-0.84,0.71-1.49,1.13-1.97,1.25
		c-0.96-1.8-2.1-3.35-3.44-4.65l-0.54-2.16c-0.84-3.33-0.78-5.13,0.17-5.36l-1.07-1.26l-0.17-0.71c-0.26-1.07-0.26-2.09,0-3.04
		c-0.71-0.84-1.15-1.55-1.29-2.15c0.19-6.39,1.9-16.02,5.17-28.86c2.65-3.58,3.65-6.7,3-9.31c4.06-6.6,5.96-10.42,5.7-11.51
		l-2.33,0.58l-0.17-0.71c4.86-6.84,9.38-15.55,12.42-23.64c1.16-3.01,2.09-5.96,2.77-8.67c1.59-5.83,0.45-3.64,0.71-5.75v-0.04
		c0.61-2.41,1.28-5.09,2-8.04c3.3-23.9,4.32-13.62,3.86-15.54c-1.86-7.41-1.43-12.13,1.22-14.19l0.71-0.17
		c1.09-0.26,2.1-0.26,3.04,0.01c0.72-0.7,1.62-1.17,2.7-1.43c2.15-0.54,5.68,2.19,10.6,8.19l1.78,7.16
		c1.54,6.22-2.08,14.67-9.6,56.73l0.72-0.19l17.65-31.4c0.59-0.14,4.04-5.88,10.35-17.22c8.42-9.45,15.94-19.51,22.54-30.15
		c8.33-8.8,14.29-13.63,17.87-14.52l0.72-0.17c7.87-1.97,16.36-0.26,19.5,4.74c6.42,7.42,6.96,5.86,8.53,12.19l0.19,0.72
		c0.12,0.46-0.07,0.77-0.54,0.88l1.06,1.25C384.89,169.35,395.44,178.92,393.41,181.24z"/>
	<path fill="#ffffff" d="M194.66,187.05l0.18,0.71l1.25-1.07c0.98-0.12,1.58,0.24,1.79,1.08c-0.48,0.12-0.66,0.42-0.54,0.89
		c2.75-0.69,8.24,2.01,16.47,8.07c8.15-3.93,12.15-6.2,12-6.79l-5.02,1.25l-0.35-1.43l4.29-1.07c3.1-0.77,7.93,0.3,14.5,3.24
		c7.34,2.99,12.22,9.38,14.66,19.17c-0.79,15.16-3.48,25.71-8.09,31.68c-1.56,5.46-8.01,16.2-19.36,32.21
		c-21.39,31.7-38.83,49.23-52.32,52.59l-2.15,0.53c-5.49,1.37-16.52-8.31-33.09-29.03c-0.53-2.15-2.02-6.09-4.46-11.82
		c-0.73-21.75,2.33-36.96,9.17-45.64l0.53,2.15l17.92-25.76l-1.43,0.35l-0.36-1.43C173.82,201.63,185.29,191.67,194.66,187.05z
		 M163.06,295.33l0.18,0.72l2.15-0.54c11.94-2.97,30.15-23.48,54.66-61.53c3.32-6.53,6.9-13.51,10.76-20.93l-0.89-3.58
		c-6.33,1.58-14.45,5.63-24.36,12.15c-9.02,8.08-17.57,17.56-25.63,28.44c-10.36,14.88-15.15,25.2-14.35,30.96
		C164.5,281.28,163.66,286.05,163.06,295.33z M150.59,229.98l0.72-0.18c0.18,0.71-0.54,1.91-2.15,3.58l-0.72,0.18
		C148.25,232.84,148.97,231.65,150.59,229.98z"/>
	<path fill="#ffffff" d="M91.81,203.37c8.83-2.2,19.75,0.41,32.75,7.82c3.1,3.29,4.95,6.12,5.54,8.51c1.64,6.56,1.57,11.65-0.19,15.26l0.35,1.43
		l-2.5,0.63c-5.76-0.21-10.71-1.26-14.86-3.15c-0.36,0.09-1.62,0.66-3.76,1.7c-4.18,0.02-7.46,0.34-9.85,0.93l-1.79,0.45
		c-0.48,0.12-0.78-0.06-0.9-0.54c-11.85,5.36-19.01,9.68-21.49,12.96l0.36,1.43c28.37,4.47,43.46,10.35,45.28,17.63
		c0.72-0.18,2.8,3.61,6.26,11.37c1.48,5.97,0.29,13.88-3.6,23.72c-3.47,7.97-21.02,21.72-52.67,41.26
		c-0.95,0.24-14.51,8.68-40.66,25.34c-4.77,0.17-7.64,0.38-8.6,0.62c-0.72,0.69-1.49,1.13-2.33,1.35c-0.59-2.39-1.37-3.47-2.32-3.23
		c-0.36,0.09-0.48,0.37-0.36,0.85c-5.01,1.25-7.93,0.2-8.77-3.14c-0.71-0.84-1.13-1.49-1.25-1.97c0.48-0.12,0.66-0.42,0.54-0.89
		l-1.25,0.31l-0.36-1.43l0.72-2.46l-0.36-1.44l-1.97,0.49c-1.01-4.06,7.41-11.48,25.26-22.26c4.9-5.78,8.6-8.99,11.11-9.61
		l0.18,0.72c2.39-0.6,4.96-2.76,7.7-6.49c0.24-0.06,1.02-0.51,2.33-1.34c0.12,0.48,0.42,0.66,0.89,0.54
		c-0.11-0.99,0.18-1.57,0.9-1.75l3.76-0.94c-0.42-1.67,3.1-3.82,10.57-6.43c1.25-2.59,10.15-9.12,26.69-19.58
		c-0.24-0.95,1.19-2.32,4.3-4.11l-0.18-0.71c-1.43,0.36-7.52-0.66-18.26-3.06c-14.92-2.37-23.15-6.66-24.69-12.87
		c-1.08,0.27-4.53-8.25-10.36-25.56l0.72-0.18c-0.12-0.48-0.42-0.66-0.9-0.54c-1.93-7.76,3.15-15.11,15.24-22.05
		c6.57-4.68,10.09-7.58,10.57-8.72c0.95,0.27,1.91,0.29,2.86,0.05C71.73,211.29,78.17,207.66,91.81,203.37z"/>
	<path fill="#ffffff" d="M442.64,122.99c8.83-2.2,19.75,0.41,32.75,7.82c3.1,3.29,4.95,6.12,5.54,8.51c1.64,6.56,1.57,11.65-0.19,15.26l0.35,1.43
		l-2.5,0.63c-5.76-0.21-10.71-1.26-14.86-3.15c-0.36,0.09-1.62,0.66-3.76,1.7c-4.18,0.02-7.46,0.34-9.85,0.93l-1.79,0.45
		c-0.48,0.12-0.78-0.06-0.9-0.54c-11.85,5.36-19.01,9.68-21.49,12.96l0.36,1.43c28.37,4.47,43.46,10.35,45.28,17.63
		c0.72-0.18,2.8,3.61,6.26,11.37c1.48,5.97,0.29,13.88-3.6,23.72c-3.47,7.97-21.02,21.72-52.67,41.26
		c-0.95,0.24-14.51,8.68-40.66,25.34c-4.77,0.17-7.64,0.38-8.6,0.62c-0.72,0.69-1.49,1.13-2.33,1.35c-0.59-2.39-1.37-3.47-2.32-3.23
		c-0.36,0.09-0.48,0.37-0.36,0.85c-5.01,1.25-7.93,0.2-8.77-3.14c-0.71-0.84-1.13-1.49-1.25-1.97c0.48-0.12,0.66-0.42,0.54-0.89
		l-1.25,0.31l-0.36-1.43l0.72-2.46l-0.36-1.44l-1.97,0.49c-1.01-4.06,7.41-11.48,25.26-22.26c4.9-5.78,8.6-8.99,11.11-9.61
		l0.18,0.72c2.39-0.6,4.96-2.76,7.7-6.49c0.24-0.06,1.02-0.51,2.33-1.34c0.12,0.48,0.42,0.66,0.89,0.54
		c-0.11-0.99,0.18-1.57,0.9-1.75l3.76-0.94c-0.42-1.67,3.1-3.82,10.57-6.43c1.25-2.59,10.15-9.12,26.69-19.58
		c-0.24-0.95,1.19-2.32,4.3-4.11l-0.18-0.71c-1.43,0.36-7.52-0.66-18.26-3.06c-14.92-2.37-23.15-6.66-24.69-12.87
		c-1.08,0.27-4.53-8.25-10.36-25.56l0.72-0.18c-0.12-0.48-0.42-0.66-0.9-0.54c-1.93-7.76,3.15-15.11,15.24-22.05
		c6.57-4.68,10.09-7.58,10.57-8.72c0.95,0.27,1.91,0.29,2.86,0.05C422.56,130.91,429,127.28,442.64,122.99z"/>
	<path fill="#ffffff" d="M496.3,254.2c0,6.23-5.05,11.28-11.29,11.28c-6.23,0-11.29-5.05-11.29-11.28c0-6.24,5.05-11.29,11.29-11.29
		C491.25,242.92,496.3,247.97,496.3,254.2z"/>
</g>
</svg>
